<?xml version="1.0" encoding="utf-8"?>
<!-- Generator: Adobe Illustrator 19.0.0, SVG Export Plug-In . SVG Version: 6.00 Build 0)  -->
<svg version="1.1" id="date" xmlns="http://www.w3.org/2000/svg" xmlns:xlink="http://www.w3.org/1999/xlink" x="0px" y="0px"
	 viewBox="-404 282.3 32 32" style="enable-background:new -404 282.3 32 32;" xml:space="preserve">
<style type="text/css">
	.st0{fill:#231F20;}
</style>
<g>
	<path class="st0" d="M-376,284.3h-2v-1c0-0.6-0.4-1-1-1c-0.6,0-1,0.4-1,1v1h-16v-1c0-0.6-0.4-1-1-1c-0.6,0-1,0.4-1,1v1h-2
		c-2.2,0-4,1.8-4,4v22c0,2.2,1.8,4,4,4h24c2.2,0,4-1.9,4-4v-22C-372,286.1-373.8,284.3-376,284.3z M-400,286.3h2v1c0,0.6,0.4,1,1,1
		c0.6,0,1-0.5,1-1v-1h16v1c0,0.6,0.4,1,1,1c0.6,0,1-0.5,1-1v-1h2c1,0,2,0.7,2,2v2h-28v-2C-402,287.3-401,286.3-400,286.3z
		 M-376,312.3h-24c-1,0-2-1-2-2v-18h28v18C-374,311.3-375,312.3-376,312.3z"/>
	<path class="st0" d="M-393.5,306.1c2.3-2,4.2-4.2,4.2-6.8c0-2.9-1.9-5-5.5-5c-2.2,0-4,0.7-5.2,1.6l1,2.6c0.8-0.6,2-1.3,3.4-1.3
		c1.8,0,2.6,1,2.6,2.3c-0.1,1.8-1.8,3.6-5.2,6.7l-2,1.8v2.3h11.2v-3h-6L-393.5,306.1z"/>
	<path class="st0" d="M-377.9,302v-0.1c1.6-0.8,2.3-2.1,2.3-3.5c0-2-1.5-4.1-5.2-4.1c-3.2,0-5.6,1.7-5.6,4.4c0,1.3,0.8,2.6,2.3,3.4
		v0.1c-1.7,0.8-2.8,2.1-2.8,4c0,2.1,1.8,4.3,5.8,4.5c3.7,0,6.1-1.9,6.1-4.8C-375,303.9-376.4,302.6-377.9,302z M-381,296.7
		c1.3,0,1.9,0.9,1.9,1.9s-0.8,1.8-1.6,2c-1.2-0.4-2.2-1-2.2-2.1C-382.9,297.6-382.3,296.7-381,296.7z M-381,308
		c-1.4,0-2.2-1.1-2.2-2.2c0-1.2,0.7-2.1,1.9-2.4c1.5,0.4,2.5,1.2,2.5,2.6C-378.8,307.1-379.6,308-381,308z"/>
</g>
</svg>
