<?xml version="1.0" encoding="utf-8"?>
<!-- Generator: Adobe Illustrator 19.0.0, SVG Export Plug-In . SVG Version: 6.00 Build 0)  -->
<svg version="1.1" id="event" xmlns="http://www.w3.org/2000/svg" xmlns:xlink="http://www.w3.org/1999/xlink" x="0px" y="0px"
	 viewBox="-404 282.3 32 32" style="enable-background:new -404 282.3 32 32;" xml:space="preserve">
<style type="text/css">
	.st0{fill:#231F20;}
</style>
<g>
	<rect x="-398" y="292.3" class="st0" width="4" height="4"/>
	<rect x="-390" y="292.3" class="st0" width="4" height="4"/>
	<rect x="-382.2" y="292.3" class="st0" width="4" height="4"/>
	<rect x="-398" y="298.3" class="st0" width="4" height="4"/>
	<rect x="-398" y="304.3" class="st0" width="4" height="4"/>
	<path class="st0" d="M-376,284.3h-2v-1c0-0.6-0.4-1-1-1h-4c-0.6,0-1,0.4-1,1v1h-8v-1c0-0.6-0.4-1-1-1h-4c-0.6,0-1,0.4-1,1v1h-2
		c-2.2,0-4,1.8-4,4v22c0,2.2,1.8,4,4,4h24c2.2,0,4-1.9,4-4v-22C-372,286.1-373.8,284.3-376,284.3z M-382,284.3h2v2h-2V284.3z
		 M-396,284.3h2v2h-2V284.3z M-374,310.3c0,1-1,2-2,2h-24c-1,0-2-1-2-2v-22c0-1,1-2,2-2h2v1c0,0.6,0.4,1,1,1h4c0.6,0,1-0.5,1-1v-1h8
		v1c0,0.6,0.4,1,1,1h4c0.6,0,1-0.5,1-1v-1h2c1,0,2,1,2,2V310.3z"/>
	<path class="st0" d="M-379.6,301.3h-2.5l-0.8-2.5c-0.2-0.4-0.5-0.7-1-0.7s-0.9,0.3-1,0.7l-0.8,2.5h-2.5c-0.5,0-0.9,0.3-1,0.7
		c-0.1,0.4,0,0.9,0.4,1.1l2,1.4l-0.8,2.5c-0.1,0.4,0,0.9,0.4,1.1c0.4,0.3,0.9,0.3,1.2,0l2-1.5l2,1.5c0.2,0.1,0.4,0.2,0.6,0.2
		c0.2,0,0.4-0.1,0.8-0.2c0.4-0.2,0.5-0.7,0.4-1.1l-0.8-2.5l2-1.4c0.4-0.2,0.5-0.7,0.4-1.1C-378.8,301.6-379.2,301.3-379.6,301.3z
		 M-383.4,304.4l0.1,0.2L-383.4,304.4c-0.2,0-0.4-0.1-0.6-0.1s-0.4,0-0.6,0.2l-0.1,0.1l0.1-0.2c0.1-0.4-0.1-0.8-0.4-1.1
		c0.5,0,0.9-0.3,1-0.7c0.2,0.4,0.6,0.7,1,0.7C-383.4,303.6-383.5,304-383.4,304.4z"/>
</g>
</svg>
