<?xml version="1.0" encoding="utf-8"?>
<!-- Generator: Adobe Illustrator 19.0.0, SVG Export Plug-In . SVG Version: 6.00 Build 0)  -->
<svg version="1.1" id="filter" xmlns="http://www.w3.org/2000/svg" xmlns:xlink="http://www.w3.org/1999/xlink" x="0px" y="0px"
	 viewBox="-404 286.3 32 24" style="enable-background:new -404 286.3 32 24;" xml:space="preserve">
<style type="text/css">
	.st0{fill:#231F20;}
</style>
<g>
	<path class="st0" d="M-373,305.3h-17c0,0-0.1,0-0.1,0c-0.4-1.7-2-3-3.9-3s-3.4,1.3-3.9,3c0,0-0.1,0-0.1,0h-5c-0.6,0-1,0.4-1,1
		c0,0.6,0.4,1,1,1h5c0,0,0.1,0,0.1,0c0.4,1.7,2,3,3.9,3s3.4-1.3,3.9-3c0,0,0.1,0,0.1,0h17c0.6,0,1-0.4,1-1
		C-372,305.7-372.4,305.3-373,305.3z M-394,308.3c-1.2,0-2-0.8-2-2s0.8-2,2-2s2,0.8,2,2S-392.8,308.3-394,308.3z"/>
	<path class="st0" d="M-403,291.3h3c0,0,0.1,0,0.1,0c0.4,1.7,2,3,3.9,3s3.4-1.3,3.9-3c0,0,0.1,0,0.1,0h19c0.6,0,1-0.4,1-1
		c0-0.6-0.4-1-1-1h-19c0,0-0.1,0-0.1,0c-0.4-1.7-2-3-3.9-3s-3.4,1.3-3.9,3c0,0-0.1,0-0.1,0h-3c-0.6,0-1,0.4-1,1
		C-404,290.9-403.6,291.3-403,291.3z M-396,288.3c1.2,0,2,0.8,2,2s-0.8,2-2,2s-2-0.8-2-2S-397.2,288.3-396,288.3z"/>
	<path class="st0" d="M-373,297.3h-3c0,0-0.1,0-0.1,0c-0.4-1.7-2-3-3.9-3s-3.4,1.3-3.9,3c0,0-0.1,0-0.1,0h-19c-0.6,0-1,0.4-1,1
		c0,0.6,0.4,1,1,1h19c0,0,0.1,0,0.1,0c0.4,1.7,2,3,3.9,3s3.4-1.3,3.9-3c0,0,0.1,0,0.1,0h3c0.6,0,1-0.4,1-1
		C-372,297.7-372.4,297.3-373,297.3z M-380,300.3c-1.2,0-2-0.8-2-2s0.8-2,2-2s2,0.8,2,2S-378.8,300.3-380,300.3z"/>
</g>
</svg>
