<?xml version="1.0" encoding="utf-8"?>
<!-- Generator: Adobe Illustrator 19.0.0, SVG Export Plug-In . SVG Version: 6.00 Build 0)  -->
<svg version="1.1" id="Layer_1" xmlns="http://www.w3.org/2000/svg" xmlns:xlink="http://www.w3.org/1999/xlink" x="0px" y="0px"
	 viewBox="-404 286.4 32 22.9" style="enable-background:new -404 286.4 32 22.9;" xml:space="preserve">
<style type="text/css">
	.st0{fill:#231F20;}
</style>
<g>
	<path id="XMLID_30_" class="st0" d="M-374.3,291h-27.4c-1.3,0-2.3-1-2.3-2.3s1-2.3,2.3-2.3h27.4c1.3,0,2.3,1,2.3,2.3
		S-373,291-374.3,291z"/>
	<path id="XMLID_29_" class="st0" d="M-374.3,300.1h-27.4c-1.3,0-2.3-1-2.3-2.3s1-2.3,2.3-2.3h27.4c1.3,0,2.3,1,2.3,2.3
		S-373,300.1-374.3,300.1z"/>
	<path id="XMLID_28_" class="st0" d="M-374.3,309.3h-27.4c-1.3,0-2.3-1-2.3-2.3s1-2.3,2.3-2.3h27.4c1.3,0,2.3,1,2.3,2.3
		S-373,309.3-374.3,309.3z"/>
</g>
</svg>
