<?xml version="1.0" encoding="utf-8"?>
<!-- Generator: Adobe Illustrator 19.0.0, SVG Export Plug-In . SVG Version: 6.00 Build 0)  -->
<svg version="1.1" id="chat" xmlns="http://www.w3.org/2000/svg" xmlns:xlink="http://www.w3.org/1999/xlink" x="0px" y="0px"
	 viewBox="-404 281.9 32 32.4" style="enable-background:new -404 281.9 32 32.4;" xml:space="preserve">
<style type="text/css">
	.st0{fill:#231F20;}
</style>
<g>
	<path class="st0" d="M-377,302.1c-0.6,0-1,0.4-1,1c0,0.6,0.4,1,1,1c0.6,0,1-0.4,1-1C-376,302.5-376.4,302.1-377,302.1z"/>
	<path class="st0" d="M-381,302.1c-0.6,0-1,0.4-1,1c0,0.6,0.4,1,1,1c0.6,0,1-0.4,1-1C-380,302.5-380.4,302.1-381,302.1z"/>
	<path class="st0" d="M-385,302.1c-0.6,0-1,0.4-1,1c0,0.6,0.4,1,1,1c0.6,0,1-0.4,1-1C-384,302.5-384.4,302.1-385,302.1z"/>
	<path class="st0" d="M-392.8,300.1h-2.2c-0.3,0-0.5,0.1-0.7,0.3l-2.3,2.3v-1.6c0-0.6-0.4-1-1-1h-1c-1.3,0-2-1-2-2v-12.2
		c0-1.3,1-2,2-2h18c1.3,0,2,1,2,2v7.2c0,0.6,0.4,1,1,1c0.6,0,1-0.4,1-1v-7.2c0-2.2-1.8-4-4-4h-18c-2.2,0-4,1.8-4,4v12.2
		c0,2.2,1.8,4,4,4v3c0,0.4,0.2,0.7,0.6,0.9c0.1,0.1,0.3,0.1,0.4,0.1c0.3,0,0.5-0.1,0.7-0.3l3.7-3.7h1.8c0.6,0,1-0.4,1-1
		C-391.8,300.5-392.2,300.1-392.8,300.1z"/>
	<path class="st0" d="M-384,289.1c0-0.6-0.4-1-1-1h-12c-0.6,0-1,0.4-1,1c0,0.6,0.4,1,1,1h12C-384.4,290.1-384,289.7-384,289.1z"/>
	<path class="st0" d="M-397,294.1c-0.6,0-1,0.4-1,1c0,0.6,0.4,1,1,1h4c0.6,0,1-0.4,1-1c0-0.6-0.4-1-1-1H-397z"/>
	<path class="st0" d="M-376,296.1h-10.2c-2.2,0-3.8,1.7-3.8,4v6.2c0,2.2,1.8,4,4,4h6.6l3.7,3.7c0.2,0.2,0.4,0.3,0.7,0.3
		c0.1,0,0.3,0,0.4-0.1c0.4-0.1,0.6-0.5,0.6-0.9v-3h1c0.6,0,1-0.4,1-1v-9.2C-372,297.9-373.8,296.1-376,296.1z M-374,308.3h-1
		c-0.6,0-1,0.4-1,1v1.6l-2.3-2.3c-0.2-0.2-0.4-0.3-0.7-0.3h-7c-1,0-2-0.7-2-2v-6.2c0-1.2,0.7-2,1.8-2h10.2c1,0,2,0.7,2,2V308.3z"/>
</g>
</svg>
