<?xml version="1.0" encoding="utf-8"?>
<!-- Generator: Adobe Illustrator 19.0.0, SVG Export Plug-In . SVG Version: 6.00 Build 0)  -->
<svg version="1.1" id="thong_bao_2" xmlns="http://www.w3.org/2000/svg" xmlns:xlink="http://www.w3.org/1999/xlink" x="0px"
	 y="0px" viewBox="-404 283.4 31.9 29.9" style="enable-background:new -404 283.4 31.9 29.9;" xml:space="preserve">
<style type="text/css">
	.st0{fill:#231F20;}
</style>
<g>
	<path class="st0" d="M-388,313.3c-0.2,0-0.3,0-0.5-0.1l-15-8c-0.5-0.2-0.6-0.8-0.4-1.3c0.2-0.5,0.8-0.6,1.3-0.4l14.5,7.8l14.5-7.8
		c0.5-0.3,1.1-0.1,1.3,0.4s0.1,1.1-0.4,1.3l-15,8C-387.7,313.3-387.9,313.3-388,313.3z"/>
	<path class="st0" d="M-388,307.3c-0.2,0-0.3,0-0.5-0.1l-15-8c-0.5-0.2-0.6-0.8-0.4-1.3c0.2-0.5,0.8-0.6,1.3-0.4l14.5,7.8l14.5-7.8
		c0.5-0.3,1.1-0.1,1.3,0.4c0.3,0.5,0.1,1.1-0.4,1.3l-15,8C-387.7,307.3-387.9,307.3-388,307.3z"/>
	<path class="st0" d="M-388,301.3c-0.2,0-0.3,0-0.5-0.1l-15-8c-0.5-0.2-0.6-0.8-0.4-1.3c0.2-0.5,0.8-0.6,1.3-0.4l14.5,7.8l14.5-7.8
		c0.5-0.2,1.1-0.1,1.3,0.4c0.3,0.5,0.1,1.1-0.4,1.3l-15,8C-387.7,301.3-387.9,301.3-388,301.3z"/>
	<path class="st0" d="M-373.1,293.3c-0.2,0-0.3,0-0.5-0.1l-14.5-7.8l-14.5,7.8c-0.5,0.3-1.1,0.1-1.3-0.4c-0.3-0.5-0.1-1.1,0.4-1.3
		l15-8c0.3-0.2,0.6-0.2,0.9,0l15,8c0.5,0.2,0.6,0.8,0.4,1.3C-372.4,293.1-372.7,293.3-373.1,293.3z"/>
</g>
</svg>
