<?xml version="1.0" encoding="utf-8"?>
<!-- Generator: Adobe Illustrator 19.0.0, SVG Export Plug-In . SVG Version: 6.00 Build 0)  -->
<svg version="1.1" id="setting" xmlns="http://www.w3.org/2000/svg" xmlns:xlink="http://www.w3.org/1999/xlink" x="0px" y="0px"
	 viewBox="-404 282.1 31.9 32.2" style="enable-background:new -404 282.1 31.9 32.2;" xml:space="preserve">
<style type="text/css">
	.st0{fill:#231F20;}
</style>
<g id="Settings">
	<g>
		<g>
			<path class="st0" d="M-388.1,284.1c0.2,0,0.4,0,0.6,0c0.2,2,1.6,3.6,3.4,4.4c0.6,0.2,1.4,0.4,2,0.4c1.2,0,2.4-0.4,3.4-1
				c0.4,0.2,0.6,0.6,1,1c-1.2,1.6-1.4,3.6-0.6,5.4s2.4,3,4.2,3.4c0,0.4,0,0.8,0,1.4c-2,0.2-3.6,1.6-4.4,3.4s-0.4,3.8,0.6,5.4
				c-0.4,0.4-0.6,0.6-1,1c-1-0.6-2.2-1-3.4-1c-0.8,0-1.4,0.2-2,0.4c-1.8,0.8-3,2.4-3.4,4.2c-0.2,0-0.4,0-0.6,0s-0.4,0-0.6,0
				c-0.2-2-1.6-3.6-3.4-4.4c-0.6-0.2-1.4-0.4-2-0.4c-1.2,0-2.4,0.4-3.4,1c-0.4-0.2-0.6-0.6-1-1c1.2-1.6,1.4-3.6,0.6-5.4
				s-2.4-3-4.2-3.4c0-0.4,0-1,0-1.4c2-0.4,3.6-1.6,4.4-3.4s0.4-3.8-0.6-5.4c0.4-0.4,0.6-0.6,1-1c1,0.6,2.2,1,3.4,1
				c0.8,0,1.4-0.2,2-0.4c1.8-0.8,3-2.4,3.4-4.2C-388.5,284.1-388.3,284.1-388.1,284.1 M-388.1,305.5c4,0,7.4-3.2,7.4-7.4
				s-3.2-7.4-7.4-7.4c-4,0-7.4,3.2-7.4,7.4S-392.1,305.5-388.1,305.5 M-388.1,282.1c-0.6,0-1.2,0-1.8,0c-0.4,0-0.8,0.4-0.8,1
				c0,1.4-0.8,2.8-2.2,3.4c-0.4,0.2-0.8,0.2-1.2,0.2c-1,0-2-0.4-2.6-1.2c-0.2-0.2-0.4-0.2-0.6-0.2s-0.4,0-0.6,0.2
				c-1,0.8-1.8,1.6-2.6,2.6c-0.2,0.4-0.2,1,0,1.2c1.2,1,1.4,2.6,0.8,4s-2,2.2-3.4,2.2l0,0c-0.4,0-0.8,0.4-0.8,0.8
				c-0.2,1.2-0.2,2.4,0,3.6c0,0.4,0.6,0.8,1,0.8l0,0c1.4,0,2.6,0.8,3.2,2.2s0.2,3-0.8,4c-0.4,0.4-0.4,0.8,0,1.2
				c0.8,1,1.6,1.8,2.6,2.6c0.2,0.2,0.4,0.2,0.6,0.2s0.4,0,0.6-0.2c0.6-0.8,1.6-1.2,2.6-1.2c0.4,0,0.8,0,1.2,0.2
				c1.4,0.6,2.2,2,2.2,3.4c0,0.4,0.4,0.8,0.8,1c0.6,0,1.2,0.2,1.8,0.2s1.2,0,1.8,0c0.4,0,0.8-0.4,0.8-1c0-1.4,0.8-2.8,2.2-3.4
				c0.4-0.2,0.8-0.2,1.2-0.2c1,0,2,0.4,2.6,1.2c0.2,0.2,0.4,0.2,0.6,0.2s0.4,0,0.6-0.2c1-0.8,1.8-1.6,2.6-2.6c0.2-0.4,0.2-1,0-1.2
				c-1.2-1-1.4-2.6-0.8-4c0.6-1.2,1.8-2.2,3.2-2.2h0.2l0,0c0.4,0,0.8-0.4,0.8-0.8c0.2-1.2,0.2-2.4,0-3.6c0-0.4-0.6-0.8-1-0.8
				c-1.4,0-2.8-0.8-3.4-2.2s-0.2-3,0.8-4c0.4-0.4,0.4-0.8,0-1.2c-0.8-1-1.6-1.8-2.6-2.6c-0.2-0.2-0.4-0.2-0.6-0.2s-0.4,0-0.6,0.2
				c-0.6,0.8-1.6,1.2-2.6,1.2c-0.4,0-0.8,0-1.2-0.2c-1.4-0.6-2.2-2-2.2-3.4c0-0.4-0.4-0.8-0.8-1
				C-386.9,282.1-387.5,282.1-388.1,282.1L-388.1,282.1z M-388.1,303.5c-3,0-5.4-2.4-5.4-5.4s2.4-5.4,5.4-5.4s5.4,2.4,5.4,5.4
				S-385.1,303.5-388.1,303.5L-388.1,303.5z"/>
		</g>
	</g>
</g>
</svg>
