<?xml version="1.0" encoding="utf-8"?>
<!-- Generator: Adobe Illustrator 19.0.0, SVG Export Plug-In . SVG Version: 6.00 Build 0)  -->
<svg version="1.1" id="cong_viec" xmlns="http://www.w3.org/2000/svg" xmlns:xlink="http://www.w3.org/1999/xlink" x="0px" y="0px"
	 viewBox="-404 282.3 32 32" style="enable-background:new -404 282.3 32 32;" xml:space="preserve">
<style type="text/css">
	.st0{fill:#231F20;}
</style>
<g>
	<path class="st0" d="M-376,314.3h-24c-2.2,0-4-1.8-4-4v-24c0-2.2,1.8-4,4-4h24c2.2,0,4,1.8,4,4v24
		C-372,312.4-373.8,314.3-376,314.3z M-400,284.3c-1,0-2,1-2,2v24c0,1,1,2,2,2h24c1,0,2-1,2-2v-24c0-1-1-2-2-2H-400z"/>
	<g>
		<path class="st0" d="M-390.4,306.9c-0.5,0-1.2-0.4-1.5-0.7l-6.4-6.4c-0.2-0.2-0.7-0.7-0.7-1.5c0-0.5,0.4-1.2,0.7-1.5l1.8-1.8
			c0.2-0.2,0.7-0.7,1.5-0.7c0.5,0,1.2,0.4,1.5,0.7l3.1,3.1l7.7-7.7c0.2-0.2,0.7-0.7,1.5-0.7c0.5,0,1.2,0.4,1.5,0.7l1.8,1.8
			c0.1,0.1,0.2,0.2,0.3,0.4c0,0,0,0,0,0.1c0.3,0.2,0.6,0.5,0.6,0.9c0,0.5-0.4,1.2-0.7,1.5l-11.2,11.2
			C-389.1,306.4-389.6,306.9-390.4,306.9z M-397,298.3C-396.9,298.3-396.9,298.3-397,298.3l6.5,6.5c0,0,0.1,0.1,0.1,0.1
			c0,0,0,0,0.1-0.1l11.1-11.1c0,0-0.1-0.1-0.1-0.1l-1.8-1.8c0,0-0.1-0.1-0.1-0.1c0,0,0,0-0.1,0.1l-8.4,8.4c-0.4,0.4-1,0.4-1.4,0
			l-3.8-3.8c0,0-0.1-0.1-0.1-0.1c0,0,0,0-0.1,0.1l-1.8,1.8C-396.9,298.2-396.9,298.3-397,298.3z"/>
	</g>
</g>
</svg>
