<?xml version="1.0" encoding="utf-8"?>
<!-- Generator: Adobe Illustrator 19.0.0, SVG Export Plug-In . SVG Version: 6.00 Build 0)  -->
<svg version="1.1" id="user" xmlns="http://www.w3.org/2000/svg" xmlns:xlink="http://www.w3.org/1999/xlink" x="0px" y="0px"
	 viewBox="-404 282.3 31.9 32" style="enable-background:new -404 282.3 31.9 32;" xml:space="preserve">
<style type="text/css">
	.st0{fill:#231F20;}
</style>
<g>
	<g>
		<path class="st0" d="M-388.1,298.3c-3.8,0-7-3.7-7-8c0-7,4.4-8,7-8c3.2,0,7,1.4,7,8C-381.1,294.6-384.3,298.3-388.1,298.3z
			 M-388.1,284.3c-3.4,0-5,2-5,6c0,3.2,2.3,6,5,6s5-2.8,5-6C-383.1,285-385.7,284.3-388.1,284.3z"/>
		<path class="st0" d="M-374.7,314.3h-26.6c-1,0-1.6-0.6-2.1-1.1c-0.6-0.6-0.8-1.6-0.4-2.6l3.4-7.9c0.3-0.6,0.7-1,1.3-1.3l5.4-2.9h1
			l0.3,0.2c1.2,1,2.7,1.6,4.3,1.6s3.2-0.6,4.3-1.6l0.3-0.2h1l5.4,2.9c0.6,0.3,0.9,0.6,1.2,1.2l3.4,7.8c0.3,0.6,0.3,1.5,0,2.3
			C-372.6,313.7-373.5,314.3-374.7,314.3z M-393.3,300.5l-4.9,2.6c-0.2,0.1-0.3,0.2-0.4,0.4l-3.4,7.8c-0.1,0.2-0.1,0.4,0,0.5
			c0.3,0.3,0.5,0.5,0.7,0.5h26.6c0.2,0,0.4-0.1,0.5-0.1c0.1-0.4,0.1-0.7,0.1-0.8l0,0l-3.4-7.8c-0.1-0.2-0.1-0.2-0.3-0.3l-4.9-2.6
			c-1.5,1.1-3.3,1.7-5.3,1.7S-391.9,301.7-393.3,300.5z"/>
	</g>
</g>
</svg>
